<svg width="108" height="14" viewBox="0 0 108 14" fill="none" xmlns="http://www.w3.org/2000/svg">
<path d="M9.952 4.968C9.22667 4.08267 8.33067 3.64 7.264 3.64C6.79467 3.64 6.35733 3.72533 5.952 3.896C5.55733 4.06667 5.216 4.30133 4.928 4.6C4.64 4.888 4.41067 5.23467 4.24 5.64C4.08 6.04533 4 6.48267 4 6.952C4 7.432 4.08 7.87467 4.24 8.28C4.41067 8.68533 4.64 9.03733 4.928 9.336C5.22667 9.63467 5.57333 9.86933 5.968 10.04C6.36267 10.2107 6.78933 10.296 7.248 10.296C8.25067 10.296 9.152 9.86933 9.952 9.016V12.728L9.632 12.84C9.152 13.0107 8.704 13.1333 8.288 13.208C7.872 13.2933 7.46133 13.336 7.056 13.336C6.224 13.336 5.424 13.1813 4.656 12.872C3.89867 12.552 3.22667 12.1093 2.64 11.544C2.064 10.968 1.6 10.2907 1.248 9.512C0.896 8.72267 0.72 7.864 0.72 6.936C0.72 6.008 0.890667 5.16 1.232 4.392C1.584 3.61333 2.048 2.94667 2.624 2.392C3.21067 1.82667 3.888 1.38933 4.656 1.08C5.424 0.759999 6.22933 0.599999 7.072 0.599999C7.552 0.599999 8.02133 0.653333 8.48 0.759999C8.94933 0.855999 9.44 1.01067 9.952 1.224V4.968ZM14.8438 6.968C14.8438 7.448 14.9344 7.89067 15.1158 8.296C15.2971 8.70133 15.5424 9.05333 15.8518 9.352C16.1611 9.65067 16.5184 9.88533 16.9238 10.056C17.3398 10.216 17.7771 10.296 18.2358 10.296C18.6944 10.296 19.1264 10.216 19.5318 10.056C19.9478 9.88533 20.3104 9.65067 20.6198 9.352C20.9398 9.05333 21.1904 8.70133 21.3718 8.296C21.5531 7.89067 21.6438 7.448 21.6438 6.968C21.6438 6.488 21.5531 6.04533 21.3718 5.64C21.1904 5.23467 20.9398 4.88267 20.6198 4.584C20.3104 4.28533 19.9478 4.056 19.5318 3.896C19.1264 3.72533 18.6944 3.64 18.2358 3.64C17.7771 3.64 17.3398 3.72533 16.9238 3.896C16.5184 4.056 16.1611 4.28533 15.8518 4.584C15.5424 4.88267 15.2971 5.23467 15.1158 5.64C14.9344 6.04533 14.8438 6.488 14.8438 6.968ZM11.5638 6.968C11.5638 6.072 11.7291 5.24 12.0598 4.472C12.3904 3.69333 12.8491 3.016 13.4358 2.44C14.0224 1.864 14.7211 1.416 15.5318 1.096C16.3531 0.765333 17.2544 0.599999 18.2358 0.599999C19.2064 0.599999 20.1024 0.765333 20.9238 1.096C21.7451 1.416 22.4491 1.864 23.0358 2.44C23.6331 3.016 24.0971 3.69333 24.4278 4.472C24.7584 5.24 24.9238 6.072 24.9238 6.968C24.9238 7.864 24.7584 8.70133 24.4278 9.48C24.0971 10.248 23.6331 10.92 23.0358 11.496C22.4491 12.072 21.7451 12.5253 20.9238 12.856C20.1024 13.176 19.2064 13.336 18.2358 13.336C17.2544 13.336 16.3531 13.176 15.5318 12.856C14.7211 12.5253 14.0224 12.072 13.4358 11.496C12.8491 10.92 12.3904 10.248 12.0598 9.48C11.7291 8.70133 11.5638 7.864 11.5638 6.968ZM26.3606 13L28.4086 0.936H31.5126L33.9286 7.368L36.3286 0.936H39.4326L41.4806 13H38.3606L37.3206 6.056L34.4726 13H33.2246L30.5206 6.056L29.4806 13H26.3606ZM46.6031 6.472H47.6431C48.7951 6.472 49.3711 5.97067 49.3711 4.968C49.3711 3.96533 48.7951 3.464 47.6431 3.464H46.6031V6.472ZM46.6031 13H43.4671V0.936H48.4591C49.8138 0.936 50.8485 1.288 51.5631 1.992C52.2885 2.696 52.6511 3.688 52.6511 4.968C52.6511 6.248 52.2885 7.24 51.5631 7.944C50.8485 8.648 49.8138 9 48.4591 9H46.6031V13ZM57.4469 0.936V7.496C57.4469 7.848 57.4575 8.21067 57.4789 8.584C57.5109 8.94667 57.5909 9.27733 57.7189 9.576C57.8575 9.87467 58.0709 10.12 58.3589 10.312C58.6469 10.4933 59.0522 10.584 59.5749 10.584C60.0975 10.584 60.4975 10.4933 60.7749 10.312C61.0629 10.12 61.2762 9.87467 61.4149 9.576C61.5535 9.27733 61.6335 8.94667 61.6549 8.584C61.6869 8.21067 61.7029 7.848 61.7029 7.496V0.936H64.8229V7.928C64.8229 9.80533 64.3909 11.176 63.5269 12.04C62.6735 12.904 61.3562 13.336 59.5749 13.336C57.7935 13.336 56.4709 12.904 55.6069 12.04C54.7429 11.176 54.3109 9.80533 54.3109 7.928V0.936H57.4469Z" fill="white"/>
<path d="M71.9338 3.592V13H68.7978V3.592H66.2218V0.936H74.5098V3.592H71.9338ZM82.7686 3.592H79.0406V5.608H82.5606V8.264H79.0406V10.344H82.7686V13H75.9046V0.936H82.7686V3.592ZM93.7176 4.968C92.9923 4.08267 92.0963 3.64 91.0296 3.64C90.5603 3.64 90.123 3.72533 89.7176 3.896C89.323 4.06667 88.9816 4.30133 88.6936 4.6C88.4056 4.888 88.1763 5.23467 88.0056 5.64C87.8456 6.04533 87.7656 6.48267 87.7656 6.952C87.7656 7.432 87.8456 7.87467 88.0056 8.28C88.1763 8.68533 88.4056 9.03733 88.6936 9.336C88.9923 9.63467 89.339 9.86933 89.7336 10.04C90.1283 10.2107 90.555 10.296 91.0136 10.296C92.0163 10.296 92.9176 9.86933 93.7176 9.016V12.728L93.3976 12.84C92.9176 13.0107 92.4696 13.1333 92.0536 13.208C91.6376 13.2933 91.227 13.336 90.8216 13.336C89.9896 13.336 89.1896 13.1813 88.4216 12.872C87.6643 12.552 86.9923 12.1093 86.4056 11.544C85.8296 10.968 85.3656 10.2907 85.0136 9.512C84.6616 8.72267 84.4856 7.864 84.4856 6.936C84.4856 6.008 84.6563 5.16 84.9976 4.392C85.3496 3.61333 85.8136 2.94667 86.3896 2.392C86.9763 1.82667 87.6536 1.38933 88.4216 1.08C89.1896 0.759999 89.995 0.599999 90.8376 0.599999C91.3176 0.599999 91.787 0.653333 92.2456 0.759999C92.715 0.855999 93.2056 1.01067 93.7176 1.224V4.968ZM99.3531 5.592H103.881V0.936H107.017V13H103.881V8.024H99.3531V13H96.2171V0.936H99.3531V5.592Z" fill="#4261E1"/>
</svg>
