<svg width="566" height="108" viewBox="0 0 566 108" fill="none" xmlns="http://www.w3.org/2000/svg">
<rect x="56.7432" y="2.12109" width="48.6361" height="48.6361" fill="#4261E1"/>
<path d="M48.6367 0.500092C48.6367 27.3611 26.8616 49.1362 0.000579834 49.1362L0.000584086 0.500087L48.6367 0.500092Z" fill="#4261E1"/>
<rect x="56.7432" y="58.8628" width="48.6361" height="48.6361" rx="24.3181" fill="#F5F5F5"/>
<path d="M113.485 107.499C113.485 80.6379 135.261 58.8628 162.121 58.8628V107.499H113.485Z" fill="#4261E1"/>
<path d="M246.268 30.4443C243.917 27.5737 241.011 26.1384 237.553 26.1384C236.031 26.1384 234.613 26.415 233.299 26.9684C232.019 27.5218 230.912 28.2827 229.979 29.2511C229.045 30.1849 228.301 31.3089 227.748 32.6232C227.229 33.9374 226.97 35.3554 226.97 36.8772C226.97 38.4336 227.229 39.8689 227.748 41.1831C228.301 42.4974 229.045 43.6387 229.979 44.6071C230.947 45.5755 232.071 46.3364 233.351 46.8898C234.63 47.4431 236.014 47.7198 237.501 47.7198C240.752 47.7198 243.675 46.3364 246.268 43.5695V55.6054L245.231 55.9685C243.675 56.5219 242.222 56.9196 240.873 57.1617C239.524 57.4384 238.193 57.5768 236.878 57.5768C234.181 57.5768 231.587 57.0753 229.097 56.0723C226.641 55.0347 224.462 53.5994 222.56 51.7664C220.692 49.8987 219.188 47.7025 218.047 45.1778C216.905 42.6184 216.335 39.8343 216.335 36.8253C216.335 33.8164 216.888 31.0668 217.995 28.5766C219.136 26.0519 220.64 23.8903 222.508 22.0918C224.41 20.2588 226.606 18.8408 229.097 17.8378C231.587 16.8002 234.198 16.2814 236.93 16.2814C238.487 16.2814 240.008 16.4544 241.496 16.8002C243.017 17.1115 244.608 17.613 246.268 18.3047V30.4443ZM262.13 36.9291C262.13 38.4854 262.423 39.9208 263.011 41.235C263.599 42.5493 264.395 43.6906 265.398 44.659C266.401 45.6274 267.559 46.3883 268.874 46.9417C270.223 47.4604 271.641 47.7198 273.128 47.7198C274.615 47.7198 276.016 47.4604 277.33 46.9417C278.679 46.3883 279.855 45.6274 280.858 44.659C281.895 43.6906 282.708 42.5493 283.296 41.235C283.884 39.9208 284.178 38.4854 284.178 36.9291C284.178 35.3727 283.884 33.9374 283.296 32.6232C282.708 31.3089 281.895 30.1676 280.858 29.1992C279.855 28.2308 278.679 27.4872 277.33 26.9684C276.016 26.415 274.615 26.1384 273.128 26.1384C271.641 26.1384 270.223 26.415 268.874 26.9684C267.559 27.4872 266.401 28.2308 265.398 29.1992C264.395 30.1676 263.599 31.3089 263.011 32.6232C262.423 33.9374 262.13 35.3727 262.13 36.9291ZM251.494 36.9291C251.494 34.0239 252.03 31.3262 253.103 28.836C254.175 26.3113 255.662 24.1151 257.564 22.2475C259.466 20.3798 261.732 18.9272 264.36 17.8897C267.023 16.8175 269.946 16.2814 273.128 16.2814C276.275 16.2814 279.18 16.8175 281.843 17.8897C284.506 18.9272 286.789 20.3798 288.691 22.2475C290.628 24.1151 292.133 26.3113 293.205 28.836C294.277 31.3262 294.813 34.0239 294.813 36.9291C294.813 39.8343 294.277 42.5493 293.205 45.074C292.133 47.5642 290.628 49.7431 288.691 51.6107C286.789 53.4783 284.506 54.9482 281.843 56.0204C279.18 57.058 276.275 57.5768 273.128 57.5768C269.946 57.5768 267.023 57.058 264.36 56.0204C261.732 54.9482 259.466 53.4783 257.564 51.6107C255.662 49.7431 254.175 47.5642 253.103 45.074C252.03 42.5493 251.494 39.8343 251.494 36.9291ZM299.472 56.4873L306.112 17.3709H316.177L324.01 38.2261L331.792 17.3709H341.857L348.497 56.4873H338.381L335.009 33.972L325.774 56.4873H321.728L312.96 33.972L309.588 56.4873H299.472ZM365.106 35.3209H368.479C372.214 35.3209 374.081 33.6953 374.081 30.4443C374.081 27.1932 372.214 25.5677 368.479 25.5677H365.106V35.3209ZM365.106 56.4873H354.938V17.3709H371.124C375.517 17.3709 378.872 18.5122 381.189 20.7949C383.541 23.0775 384.716 26.294 384.716 30.4443C384.716 34.5946 383.541 37.811 381.189 40.0937C378.872 42.3763 375.517 43.5177 371.124 43.5177H365.106V56.4873ZM400.266 17.3709V38.6411C400.266 39.7824 400.301 40.9583 400.37 42.1688C400.474 43.3447 400.733 44.4169 401.148 45.3853C401.598 46.3537 402.29 47.1492 403.223 47.7717C404.157 48.3597 405.471 48.6536 407.166 48.6536C408.861 48.6536 410.158 48.3597 411.057 47.7717C411.991 47.1492 412.683 46.3537 413.132 45.3853C413.582 44.4169 413.841 43.3447 413.91 42.1688C414.014 40.9583 414.066 39.7824 414.066 38.6411V17.3709H424.182V40.0418C424.182 46.1289 422.782 50.5732 419.98 53.3746C417.213 56.176 412.942 57.5768 407.166 57.5768C401.39 57.5768 397.102 56.176 394.3 53.3746C391.499 50.5732 390.098 46.1289 390.098 40.0418V17.3709H400.266Z" fill="white"/>
<path d="M447.239 25.9827V56.4873H437.07V25.9827H428.718V17.3709H455.591V25.9827H447.239ZM482.37 25.9827H470.282V32.5194H481.695V41.1313H470.282V47.8755H482.37V56.4873H460.114V17.3709H482.37V25.9827ZM517.871 30.4443C515.519 27.5737 512.614 26.1384 509.155 26.1384C507.634 26.1384 506.216 26.415 504.901 26.9684C503.622 27.5218 502.515 28.2827 501.581 29.2511C500.647 30.1849 499.904 31.3089 499.35 32.6232C498.831 33.9374 498.572 35.3554 498.572 36.8772C498.572 38.4336 498.831 39.8689 499.35 41.1831C499.904 42.4974 500.647 43.6387 501.581 44.6071C502.549 45.5755 503.673 46.3364 504.953 46.8898C506.233 47.4431 507.616 47.7198 509.103 47.7198C512.354 47.7198 515.277 46.3364 517.871 43.5695V55.6054L516.833 55.9685C515.277 56.5219 513.824 56.9196 512.476 57.1617C511.127 57.4384 509.795 57.5768 508.481 57.5768C505.783 57.5768 503.189 57.0753 500.699 56.0723C498.244 55.0347 496.065 53.5994 494.162 51.7664C492.295 49.8987 490.79 47.7025 489.649 45.1778C488.508 42.6184 487.937 39.8343 487.937 36.8253C487.937 33.8164 488.49 31.0668 489.597 28.5766C490.738 26.0519 492.243 23.8903 494.111 22.0918C496.013 20.2588 498.209 18.8408 500.699 17.8378C503.189 16.8002 505.8 16.2814 508.533 16.2814C510.089 16.2814 511.611 16.4544 513.098 16.8002C514.62 17.1115 516.211 17.613 517.871 18.3047V30.4443ZM536.143 32.4675H550.825V17.3709H560.993V56.4873H550.825V40.3531H536.143V56.4873H525.975V17.3709H536.143V32.4675Z" fill="#4261E1"/>
<path d="M221.222 107.512V80.6231H225.262C227.062 80.6231 228.496 80.7624 229.564 81.0411C230.643 81.3197 231.555 81.7899 232.298 82.4517C233.053 83.1367 233.65 83.9901 234.092 85.0118C234.544 86.0451 234.771 87.09 234.771 88.1465C234.771 90.0738 234.034 91.705 232.559 93.0402C233.987 93.5278 235.113 94.3811 235.938 95.6002C236.774 96.8077 237.192 98.2125 237.192 99.8147C237.192 101.916 236.449 103.692 234.962 105.144C234.068 106.038 233.064 106.659 231.95 107.007C230.731 107.344 229.204 107.512 227.369 107.512H221.222ZM225.28 92.1694H226.551C228.06 92.1694 229.163 91.8385 229.86 91.1767C230.568 90.5033 230.922 89.5165 230.922 88.2161C230.922 86.9506 230.562 85.9928 229.842 85.3426C229.123 84.6809 228.078 84.35 226.708 84.35H225.28V92.1694ZM225.28 103.698H227.787C229.622 103.698 230.969 103.338 231.828 102.619C232.733 101.841 233.186 100.854 233.186 99.6579C233.186 98.4969 232.751 97.5217 231.88 96.7322C231.032 95.9543 229.517 95.5654 227.335 95.5654H225.28V103.698ZM257.707 100.982H246.195L243.2 107.512H238.829L252.134 78.9338L264.969 107.512H260.528L257.707 100.982ZM256.052 97.1676L252.064 88.0246L247.885 97.1676H256.052ZM286.964 82.0686V86.8752C284.619 84.9131 282.192 83.932 279.685 83.932C276.921 83.932 274.594 84.9247 272.701 86.91C270.797 88.8837 269.845 91.2986 269.845 94.1547C269.845 96.976 270.797 99.3561 272.701 101.295C274.605 103.234 276.939 104.203 279.702 104.203C281.13 104.203 282.343 103.971 283.342 103.507C283.899 103.275 284.474 102.961 285.066 102.566C285.67 102.172 286.302 101.696 286.964 101.138V106.032C284.642 107.344 282.204 108 279.65 108C275.807 108 272.527 106.659 269.81 103.977C267.105 101.272 265.753 98.0093 265.753 94.1896C265.753 90.7646 266.885 87.7111 269.148 85.0292C271.935 81.7435 275.54 80.1007 279.963 80.1007C282.378 80.1007 284.712 80.7566 286.964 82.0686ZM296.926 91.3509L307.392 80.6231H312.808L300.653 92.7964L312.878 107.512H307.445L297.762 95.548L296.926 96.3839V107.512H292.868V80.6231H296.926V91.3509ZM326.183 93.9458C326.183 90.1608 327.571 86.91 330.346 84.1932C333.109 81.4765 336.429 80.1181 340.307 80.1181C344.138 80.1181 347.424 81.4881 350.164 84.2281C352.916 86.9681 354.291 90.2595 354.291 94.1025C354.291 97.9687 352.91 101.249 350.147 103.942C347.372 106.647 344.022 108 340.098 108C336.627 108 333.509 106.798 330.746 104.395C327.704 101.736 326.183 98.2531 326.183 93.9458ZM330.276 93.998C330.276 96.9702 331.274 99.4141 333.271 101.33C335.257 103.245 337.55 104.203 340.15 104.203C342.972 104.203 345.352 103.228 347.291 101.278C349.229 99.3038 350.199 96.9005 350.199 94.0677C350.199 91.2 349.241 88.7967 347.325 86.8578C345.421 84.9073 343.064 83.932 340.255 83.932C337.457 83.932 335.094 84.9073 333.167 86.8578C331.24 88.785 330.276 91.1651 330.276 93.998ZM372.821 84.437H363.452V90.8981H372.49V94.712H363.452V107.512H359.394V80.6231H372.821V84.437ZM390.968 84.437H381.599V90.8981H390.637V94.712H381.599V107.512H377.541V80.6231H390.968V84.437ZM399.745 80.6231V107.512H395.687V80.6231H399.745ZM426.077 82.0686V86.8752C423.732 84.9131 421.305 83.932 418.797 83.932C416.034 83.932 413.706 84.9247 411.814 86.91C409.91 88.8837 408.958 91.2986 408.958 94.1547C408.958 96.976 409.91 99.3561 411.814 101.295C413.718 103.234 416.052 104.203 418.815 104.203C420.243 104.203 421.456 103.971 422.455 103.507C423.012 103.275 423.587 102.961 424.179 102.566C424.782 102.172 425.415 101.696 426.077 101.138V106.032C423.755 107.344 421.317 108 418.763 108C414.92 108 411.64 106.659 408.923 103.977C406.218 101.272 404.865 98.0093 404.865 94.1896C404.865 90.7646 405.997 87.7111 408.261 85.0292C411.048 81.7435 414.653 80.1007 419.076 80.1007C421.491 80.1007 423.825 80.7566 426.077 82.0686ZM446.052 84.437H435.272V90.8981H445.739V94.712H435.272V103.698H446.052V107.512H431.214V80.6231H446.052V84.437Z" fill="white"/>
</svg>
